<?xml version="1.0" encoding="UTF-8"?>
<svg width="18px" height="20px" viewBox="0 0 18 20" version="1.1" xmlns="http://www.w3.org/2000/svg" xmlns:xlink="http://www.w3.org/1999/xlink">
    <!-- Generator: Sketch 52.6 (67491) - http://www.bohemiancoding.com/sketch -->
    <title>ic-cart</title>
    <desc>Created with Sketch.</desc>
    <g id="ICON-SET" stroke="none" stroke-width="1" fill="none" fill-rule="evenodd">
        <g id="ic--cart" transform="translate(-3.000000, -2.000000)">
            <g id="ic-cart">
                <circle id="Oval" fill-opacity="0" fill="#E5E5E5" cx="12" cy="12" r="12"></circle>
                <g id="line-icon-02-09" transform="translate(3.000000, 2.000000)" fill="#231F20" fill-rule="nonzero">
                    <path d="M17.1,4.05 L13.5,4.05 C13.1840038,1.83236257 11.2850378,0.184803119 9.045,0.184803119 C6.80496219,0.184803119 4.90599622,1.83236257 4.59,4.05 L0.9,4.05 C0.651471863,4.05 0.45,4.25147186 0.45,4.5 L0.45,19.35 C0.45,19.5985281 0.651471863,19.8 0.9,19.8 L17.1,19.8 C17.3485281,19.8 17.55,19.5985281 17.55,19.35 L17.55,4.5 C17.55,4.25147186 17.3485281,4.05 17.1,4.05 Z M9,0.9 C10.8249752,0.885692873 12.3719272,2.23927586 12.6,4.05 L5.445,4.05 C5.67096276,2.25631806 7.19216064,0.908421203 9,0.9 Z M16.65,18.9 L1.35,18.9 L1.35,4.95 L4.5,4.95 L4.5,6.75 C4.5,6.99852814 4.70147186,7.2 4.95,7.2 C5.19852814,7.2 5.4,6.99852814 5.4,6.75 L5.4,4.95 L12.6,4.95 L12.6,6.75 C12.6,6.99852814 12.8014719,7.2 13.05,7.2 C13.2985281,7.2 13.5,6.99852814 13.5,6.75 L13.5,4.95 L16.65,4.95 L16.65,18.9 Z" id="Shape"></path>
                    <path d="M3.6,16.2 C3.35147186,16.2 3.15,16.4014719 3.15,16.65 C3.15,16.8985281 3.35147186,17.1 3.6,17.1 L14.4,17.1 C14.6485281,17.1 14.85,16.8985281 14.85,16.65 C14.85,16.4014719 14.6485281,16.2 14.4,16.2 L3.6,16.2 Z" id="Path"></path>
                </g>
            </g>
        </g>
    </g>
</svg>