<?xml version="1.0" encoding="UTF-8"?>
<svg width="16px" height="18px" viewBox="0 0 16 18" version="1.1" xmlns="http://www.w3.org/2000/svg" xmlns:xlink="http://www.w3.org/1999/xlink">
    <!-- Generator: Sketch 52.6 (67491) - http://www.bohemiancoding.com/sketch -->
    <title>ic-list</title>
    <desc>Created with Sketch.</desc>
    <g id="ICON-SET" stroke="none" stroke-width="1" fill="none" fill-rule="evenodd">
        <g id="ic--list" transform="translate(-4.000000, -4.000000)">
            <g id="ic-list">
                <circle id="Oval" fill-opacity="0" fill="#E5E5E5" cx="12" cy="12" r="12"></circle>
                <g id="line-icon-02-10" transform="translate(4.000000, 4.000000)" fill="#231F20" fill-rule="nonzero">
                    <path d="M0.8,17.6 C0.741954894,17.6120772 0.682045106,17.6120772 0.624,17.6 C0.487947181,17.5312651 0.401555888,17.3924219 0.4,17.24 L0.4,0.4 C0.4,0.293913404 0.442142736,0.192171839 0.517157288,0.117157288 C0.592171839,0.0421427361 0.693913404,-3.55271368e-16 0.8,0 L15.2,0 C15.4209139,0 15.6,0.1790861 15.6,0.4 L15.6,17.2 C15.6008471,17.3553739 15.5098454,17.4965834 15.368,17.56 C15.2288964,17.625072 15.0650364,17.6065218 14.944,17.512 L13.4,16.24 L11.856,17.512 C11.7091258,17.6311493 11.4988742,17.6311493 11.352,17.512 L9.8,16.28 L8.248,17.512 C8.10484153,17.633099 7.89515847,17.633099 7.752,17.512 L6.2,16.28 L4.648,17.512 C4.50164556,17.6240329 4.29835444,17.6240329 4.152,17.512 L2.6,16.312 L1.048,17.52 C0.974874791,17.570222 0.888688447,17.598024 0.8,17.6 Z M2.6,15.408 C2.6892789,15.4062373 2.77658036,15.434399 2.848,15.488 L4.4,16.688 L5.952,15.456 C6.09835444,15.3439671 6.30164556,15.3439671 6.448,15.456 L8,16.688 L9.552,15.456 C9.69835444,15.3439671 9.90164556,15.3439671 10.048,15.456 L11.6,16.688 L13.144,15.416 C13.2934281,15.2955889 13.5065719,15.2955889 13.656,15.416 L14.8,16.352 L14.8,0.8 L1.2,0.8 L1.2,16.384 L2.352,15.488 C2.42341964,15.434399 2.5107211,15.4062373 2.6,15.408 Z" id="Shape"></path>
                    <path d="M13.4,9.2 L2.6,9.2 C2.3790861,9.2 2.2,9.0209139 2.2,8.8 C2.2,8.5790861 2.3790861,8.4 2.6,8.4 L13.4,8.4 C13.6209139,8.4 13.8,8.5790861 13.8,8.8 C13.8,9.0209139 13.6209139,9.2 13.4,9.2 Z" id="Path"></path>
                    <path d="M13.4,12.8 L2.6,12.8 C2.3790861,12.8 2.2,12.6209139 2.2,12.4 C2.2,12.1790861 2.3790861,12 2.6,12 L13.4,12 C13.6209139,12 13.8,12.1790861 13.8,12.4 C13.8,12.6209139 13.6209139,12.8 13.4,12.8 Z" id="Path"></path>
                    <path d="M13.4,5.6 L2.6,5.6 C2.3790861,5.6 2.2,5.4209139 2.2,5.2 C2.2,4.9790861 2.3790861,4.8 2.6,4.8 L13.4,4.8 C13.6209139,4.8 13.8,4.9790861 13.8,5.2 C13.8,5.4209139 13.6209139,5.6 13.4,5.6 Z" id="Path"></path>
                </g>
            </g>
        </g>
    </g>
</svg>