<?xml version="1.0" encoding="UTF-8"?>
<svg width="18px" height="19px" viewBox="0 0 18 19" version="1.1" xmlns="http://www.w3.org/2000/svg" xmlns:xlink="http://www.w3.org/1999/xlink">
    <!-- Generator: Sketch 52.6 (67491) - http://www.bohemiancoding.com/sketch -->
    <title>ic-user</title>
    <desc>Created with Sketch.</desc>
    <g id="ICON-SET" stroke="none" stroke-width="1" fill="none" fill-rule="evenodd">
        <g id="ic--user" transform="translate(-3.000000, -3.000000)">
            <g id="ic-user">
                <circle id="Oval" fill-opacity="0" fill="#E5E5E5" cx="12" cy="12" r="12"></circle>
                <g id="line-icon-02-08" transform="translate(3.000000, 3.000000)" fill="#231F20" fill-rule="nonzero">
                    <path d="M16.9772727,18.8181818 L1.02272727,18.8181818 C0.796792602,18.8181818 0.613636364,18.6350256 0.613636364,18.4090909 C0.613636364,14.1218182 4.37727273,10.6363636 9,10.6363636 C13.6227273,10.6363636 17.3863636,14.1218182 17.3863636,18.4090909 C17.3863636,18.6350256 17.2032074,18.8181818 16.9772727,18.8181818 Z M1.43181818,18 L16.5518182,18 C16.3636364,14.3509091 13.0254545,11.4545455 9,11.4545455 C4.97454545,11.4545455 1.67727273,14.3509091 1.44818182,18 L1.43181818,18 Z" id="Shape"></path>
                    <path d="M9,8.92636364 C6.7406533,8.92636364 4.90909091,7.09480125 4.90909091,4.83545455 C4.90909091,2.57610784 6.7406533,0.744545455 9,0.744545455 C11.2593467,0.744545455 13.0909091,2.57610784 13.0909091,4.83545455 C13.0909091,5.92043109 12.6599038,6.96096983 11.8927096,7.7281641 C11.1255153,8.49535838 10.0849765,8.92636364 9,8.92636364 Z M9,1.63636364 C7.19252264,1.63636364 5.72727273,3.10161355 5.72727273,4.90909091 C5.72727273,6.71656827 7.19252264,8.18181818 9,8.18181818 C10.8074774,8.18181818 12.2727273,6.71656827 12.2727273,4.90909091 C12.2727273,4.04110967 11.9279231,3.20867868 11.3141676,2.59492326 C10.7004122,1.98116784 9.86798124,1.63636364 9,1.63636364 Z" id="Shape"></path>
                </g>
            </g>
        </g>
    </g>
</svg>